<mxfile host="65bd71144e">
    <diagram id="EqczectMSZ07eqyrmZgm" name="ページ1">
        <mxGraphModel dx="391" dy="394" grid="1" gridSize="10" guides="1" tooltips="1" connect="1" arrows="1" fold="1" page="1" pageScale="1" pageWidth="827" pageHeight="1169" math="0" shadow="0">
            <root>
                <mxCell id="0"/>
                <mxCell id="1" parent="0"/>
                <mxCell id="3" value="RoboDog" style="text;html=1;align=center;verticalAlign=middle;whiteSpace=wrap;rounded=0;" parent="1" vertex="1">
                    <mxGeometry x="60" y="80" width="115" height="30" as="geometry"/>
                </mxCell>
                <mxCell id="mYu51KB-YRa9XT2EOm1l-3" value="ユーザ" style="shape=umlActor;verticalLabelPosition=bottom;verticalAlign=top;html=1;outlineConnect=0;" parent="1" vertex="1">
                    <mxGeometry x="90" y="173" width="30" height="60" as="geometry"/>
                </mxCell>
                <mxCell id="mYu51KB-YRa9XT2EOm1l-7" value="システム内部" style="rounded=0;whiteSpace=wrap;html=1;fillColor=none;labelPosition=center;verticalLabelPosition=middle;align=center;verticalAlign=top;" parent="1" vertex="1">
                    <mxGeometry x="200" y="80" width="210" height="280" as="geometry"/>
                </mxCell>
                <mxCell id="mYu51KB-YRa9XT2EOm1l-8" value="" style="endArrow=none;html=1;rounded=0;entryX=0;entryY=0.5;entryDx=0;entryDy=0;" parent="1" source="mYu51KB-YRa9XT2EOm1l-3" target="mYu51KB-YRa9XT2EOm1l-9" edge="1">
                    <mxGeometry width="50" height="50" relative="1" as="geometry">
                        <mxPoint x="150" y="215" as="sourcePoint"/>
                        <mxPoint x="200" y="165" as="targetPoint"/>
                    </mxGeometry>
                </mxCell>
                <mxCell id="mYu51KB-YRa9XT2EOm1l-9" value="名前を変更する" style="ellipse;whiteSpace=wrap;html=1;" parent="1" vertex="1">
                    <mxGeometry x="245" y="150" width="120" height="50" as="geometry"/>
                </mxCell>
                <mxCell id="mYu51KB-YRa9XT2EOm1l-10" value="時刻に応じた挨拶をする" style="ellipse;whiteSpace=wrap;html=1;" parent="1" vertex="1">
                    <mxGeometry x="245" y="220" width="120" height="50" as="geometry"/>
                </mxCell>
                <mxCell id="mYu51KB-YRa9XT2EOm1l-11" value="" style="endArrow=none;html=1;rounded=0;entryX=0;entryY=0.5;entryDx=0;entryDy=0;" parent="1" source="mYu51KB-YRa9XT2EOm1l-3" target="mYu51KB-YRa9XT2EOm1l-10" edge="1">
                    <mxGeometry width="50" height="50" relative="1" as="geometry">
                        <mxPoint x="120" y="200" as="sourcePoint"/>
                        <mxPoint x="265" y="190" as="targetPoint"/>
                    </mxGeometry>
                </mxCell>
                <mxCell id="4" value="足し算をする" style="ellipse;whiteSpace=wrap;html=1;" vertex="1" parent="1">
                    <mxGeometry x="245" y="280" width="120" height="50" as="geometry"/>
                </mxCell>
                <mxCell id="5" value="" style="endArrow=none;html=1;rounded=0;entryX=0;entryY=0.5;entryDx=0;entryDy=0;" edge="1" parent="1" target="4">
                    <mxGeometry width="50" height="50" relative="1" as="geometry">
                        <mxPoint x="120" y="226.5" as="sourcePoint"/>
                        <mxPoint x="245" y="263.5" as="targetPoint"/>
                    </mxGeometry>
                </mxCell>
            </root>
        </mxGraphModel>
    </diagram>
</mxfile>